<?xml version="1.0" encoding="UTF-8"?>
<svg id="Livello_1" data-name="Livello 1" xmlns="http://www.w3.org/2000/svg" viewBox="0 0 29.19 19.91">
  <defs>
    <style>
      .cls-1 {
        fill: #fff;
      }
    </style>
  </defs>
  <path class="cls-1" d="M22.08,0l-.14,1.66c.14-.06.35-.2.5-.33l.1-.09.13-.03c5.37-1.09,6.39,3.55,6.4,3.59.28,1.39.05,2.62-.67,3.65-1.46,2.1-4.43,2.6-4.55,2.62-1.62.13-3.69,3.86-4.62,6.17l-.1.25-.58.12c-.28,1.33-1.49,2-1.55,2.02l-.2.06c-2.32.16-4.33.21-5.97.21-3.2,0-5.02-.2-5.14-.21-1.17-.17-1.75-1.69-1.82-1.86L.18.52l21.9-.52M1.18.65l3.65,16.91c.12.3.54,1.08.98,1.15.03,0,4.12.45,10.79,0,.24-.16.94-.69.99-1.54l.02-.39.79-.16c.56-1.32,2.84-6.34,5.33-6.54h0s2.64-.46,3.85-2.2c.55-.8.72-1.77.51-2.88-.03-.14-.82-3.63-5.1-2.84-.33.27-.98.69-1.52.46-.19-.08-.5-.3-.54-.9l.12-1.5"/>
  <path class="cls-1" d="M24.51,8.69c-1.64,0-2.97-1.33-2.97-2.97s1.33-2.97,2.97-2.97,2.97,1.33,2.97,2.97-1.33,2.97-2.97,2.97ZM24.51,3.74c-1.09,0-1.97.88-1.97,1.97s.88,1.97,1.97,1.97,1.97-.88,1.97-1.97-.88-1.97-1.97-1.97Z"/>
  <g>
    <polygon class="cls-1" points="7.95 4.64 7.95 19.1 14.68 19 14.68 4.64 7.95 4.64"/>
    <path class="cls-1" d="M7.45,19.6V4.14h7.73v15.35l-7.73.11ZM8.45,5.14v13.45l5.73-.08V5.14h-5.73Z"/>
  </g>
  <polyline class="cls-1" points="22.08 0 0 0 .34 1.17 20.98 1.17"/>
</svg>