<?xml version="1.0" encoding="utf-8"?>
<!-- Generator: Adobe Illustrator 25.4.1, SVG Export Plug-In . SVG Version: 6.00 Build 0)  -->
<svg version="1.1" id="Livello_1" xmlns="http://www.w3.org/2000/svg" xmlns:xlink="http://www.w3.org/1999/xlink" x="0px" y="0px"
	 viewBox="0 0 40 40" style="enable-background:new 0 0 40 40;" xml:space="preserve">
<style type="text/css">
	.st0{fill-rule:evenodd;clip-rule:evenodd;fill:#FFFFFF;}
</style>
<g id="icona_x2F_Machine-_x2B_-caps">
	<g id="Group" transform="translate(8.000000, 4.000000)">
		<path id="Combined-Shape" class="st0" d="M9.4,0c5.2,0,9.4,4.2,9.4,9.4l0,0v5h2.9c1.3,0,2.3,1.1,2.3,2.3s-1.1,2.3-2.3,2.3l0,0
			h-2.9l0,2.9h-1.2l0-3c-0.8-0.2-1.4-0.8-1.6-1.5l0-0.2h-2.4v1.2c0,0.3-0.3,0.6-0.6,0.6l0,0H10v1.2c0,0.3-0.3,0.6-0.6,0.6
			s-0.6-0.3-0.6-0.6l0,0v-1.2H5.9c-0.3,0-0.6-0.3-0.6-0.6l0,0v-1.8c0-1.1,0.7-2,1.8-2.3l0,0v-2.4H1.2v14.4h5.6
			c0.3,0,0.6,0.3,0.6,0.6c0,0.3-0.3,0.6-0.6,0.6l0,0H1.2v0.6c0,0.3,0.3,0.6,0.6,0.6l0,0H11V30l-9.2,0c-0.9,0-1.7-0.7-1.8-1.6l0-0.1
			V9.7C0,4.6,4,0,9.4,0z M11.1,15.6H7.6c-0.6,0-1.2,0.5-1.2,1.2l0,0v1.2h5.9v-1.2C12.3,16.1,11.8,15.6,11.1,15.6L11.1,15.6z
			 M21.7,15.6h-3.5c-0.6,0-1.2,0.5-1.2,1.2c0,0.6,0.5,1.2,1.2,1.2l0,0h3.5c0.6,0,1.2-0.5,1.2-1.2C22.8,16.1,22.3,15.6,21.7,15.6
			L21.7,15.6z M17.6,12.1h-5.9v2.4c0.8,0.2,1.5,0.9,1.7,1.7l0,0h2.5c0.2-0.8,0.9-1.5,1.7-1.7l0,0V12.1z M10.5,12.1H8.2v2.3h2.3V12.1
			z M9.4,1.2c-4.7,0-8.2,4-8.2,8.6l0,0v1.1h16.4V9.4C17.6,4.8,13.9,1.2,9.4,1.2z"/>
		<path id="Combined-Shape_00000063594798944786060110000017396220783764094384_" class="st0" d="M18.1,24l0.2,0c0.2,0,0.4,0,0.6,0
			l0,0l0.4,0c0.1,0,0.1,0,0.2,0l0,0l0.4,0c0.1,0,0.2,0,0.4,0l0,0l0.4,0l0,0l0.2,0l0.3,0.1c1.9,0.4,3.1,1.1,3.1,2.1
			c0,0.6-0.5,1.1-1.3,1.5c0,0.1,0,0.3,0,0.4l0,0v0.9c0,1.8-1.5,3.3-3.3,3.3l0,0h-3.1c-1.8,0-3.3-1.5-3.3-3.3l0,0v-0.9
			c0-0.1,0-0.3,0-0.4c-0.8-0.4-1.3-0.9-1.3-1.5c0-1,1.3-1.7,3.1-2.1l0,0l0.3-0.1c0.1,0,0.1,0,0.2,0l0,0l0.4,0c0.1,0,0.2,0,0.4,0l0,0
			l0.4,0l0,0l0.2,0l0.4,0C17.6,24,17.8,24,18.1,24L18.1,24z M17.7,28.7l-0.4,0l-0.4,0c-0.1,0-0.1,0-0.2,0l0,0l-0.4,0
			c-0.1,0-0.2,0-0.4,0l0,0l-0.4,0c-0.1,0-0.1,0-0.2,0l0,0l-0.3-0.1c-0.3-0.1-0.6-0.1-0.9-0.2l0,0v0.9c0,1.3,1,2.3,2.3,2.3l0,0h3.1
			c1.3,0,2.3-1,2.3-2.3l0,0v-0.9l0,0c-0.3,0.1-0.6,0.2-0.9,0.2l0,0l-0.3,0.1c-0.1,0-0.1,0-0.2,0l0,0l-0.4,0c-0.1,0-0.2,0-0.4,0l0,0
			l-0.4,0c-0.1,0-0.1,0-0.2,0l0,0l-0.4,0c-0.3,0-0.5,0-0.8,0l0,0L17.7,28.7L17.7,28.7z M18.1,24.9c-1.5,0-2.8,0.2-3.8,0.5
			c-0.9,0.3-1.3,0.6-1.3,0.9c0,0.2,0.4,0.5,1.1,0.8c0.3,0.1,0.6,0.2,0.9,0.3c0,0,0.1,0,0.1,0l-0.1,0c0.1,0,0.2,0,0.3,0.1l-0.2,0
			c0.1,0,0.2,0,0.3,0.1l-0.1,0c0.1,0,0.2,0,0.2,0l-0.1,0c0.1,0,0.2,0,0.3,0.1l-0.2,0c0.3,0.1,0.7,0.1,1,0.1c0.1,0,0.1,0,0.2,0l0.3,0
			c0.4,0,0.7,0,1.1,0l0,0l0.4,0c0.3,0,0.6,0,0.9,0c0.1,0,0.2,0,0.3,0c0.3,0,0.5-0.1,0.8-0.1c0.1,0,0.2,0,0.2,0l-0.2,0
			c0.1,0,0.2,0,0.3-0.1l-0.1,0c0.1,0,0.1,0,0.2,0l-0.1,0c0.1,0,0.2,0,0.3-0.1l-0.2,0c0.1,0,0.2,0,0.3-0.1l-0.2,0
			c0.1,0,0.2,0,0.3-0.1l-0.1,0c0.1,0,0.1,0,0.2,0l-0.1,0c0.2,0,0.4-0.1,0.5-0.2c0.9-0.3,1.3-0.6,1.3-0.9c0-0.2-0.5-0.6-1.3-0.9
			C20.9,25.1,19.6,24.9,18.1,24.9z"/>
	</g>
</g>
</svg>
