<?xml version="1.0" encoding="UTF-8"?>
<svg width="17px" height="17px" viewBox="0 0 17 17" version="1.1" xmlns="http://www.w3.org/2000/svg" xmlns:xlink="http://www.w3.org/1999/xlink">
    <title>gift</title>
    <g id="Page-1" stroke="none" stroke-width="1" fill="none" fill-rule="evenodd">
        <g id="gift" transform="translate(0.420000, 0.232011)" fill="#0A2D4B">
            <path d="M8.48787202,5.99362129 L15.024256,5.99362129 L15.024256,4.12507416 L8.48787202,4.12507416 L8.48787202,5.99362129 Z M8.48787202,15.0411796 L14.0013317,15.0411796 L14.0013317,6.95244165 L8.48787202,6.95244165 L8.48787202,15.0411796 Z M1.99857877,15.0411796 L7.51212798,15.0411796 L7.51212798,6.95244165 L1.99857877,6.95244165 L1.99857877,15.0411796 Z M0.975654519,5.99362129 L7.51212798,5.99362129 L7.51212798,4.12507416 L0.975654519,4.12507416 L0.975654519,5.99362129 Z M3.9064677,1.5471337 C3.85096157,1.41322614 3.85328924,1.30791251 4.02938691,1.16582269 C4.20253023,1.02610836 4.38292515,0.958450733 4.58731304,0.958450733 C4.64147628,0.958450733 4.69743004,0.963113742 4.75535338,0.972615724 C5.61811559,1.11329784 6.62707379,2.20356228 7.26897532,3.04264006 C5.54918056,2.94304522 4.15830438,2.15508457 3.9064677,1.5471337 Z M11.6232521,0.972615724 C11.6811755,0.963113742 11.7370397,0.958450733 11.7912925,0.958450733 C11.9956804,0.958450733 12.1760753,1.02610836 12.3492186,1.16582269 C12.5252268,1.30791251 12.5275544,1.41322614 12.4721378,1.5471337 C12.2202116,2.15508457 10.8295145,2.9431332 9.1096302,3.04264006 C9.75153173,2.20356228 10.7604899,1.11329784 11.6232521,0.972615724 Z M15.5121727,3.16625381 L12.1015001,3.16625381 C12.7349862,2.8013953 13.1903155,2.35620986 13.3757239,1.9087369 C13.6036571,1.35858975 13.455223,0.817856594 12.9685596,0.424932049 C12.5342689,0.074326515 12.0136751,-0.0631882777 11.4625529,0.0268166059 C10.1236914,0.245802095 8.83612822,1.76673506 8.18930276,2.65103524 C7.5424773,1.76673506 6.25482461,0.245802095 4.91605257,0.0268166059 C4.36493042,-0.0629243337 3.84424711,0.0745024777 3.41004594,0.424932049 C2.92338252,0.817856594 2.77494838,1.35867773 3.00279209,1.9087369 C3.18820047,2.35620986 3.64352979,2.8013953 4.27692635,3.16625381 L0.48782726,3.16625381 C0.218443478,3.16625381 0,3.38092821 0,3.64566398 L0,6.47303147 C0,6.73776724 0.218443478,6.95244165 0.48782726,6.95244165 L1.02292426,6.95244165 L1.02292426,15.5205898 C1.02292426,15.7854136 1.24136773,16 1.51075151,16 L14.4892485,16 C14.7586323,16 14.9770757,15.7854136 14.9770757,15.5205898 L14.9770757,6.95244165 L15.5121727,6.95244165 C15.7815565,6.95244165 16,6.73776724 16,6.47303147 L16,3.64566398 C16,3.38092821 15.7815565,3.16625381 15.5121727,3.16625381 L15.5121727,3.16625381 Z" id="Fill-3"></path>
        </g>
    </g>
</svg>