<?xml version="1.0" encoding="UTF-8"?>
<svg width="25px" height="24px" viewBox="0 0 25 24" version="1.1" xmlns="http://www.w3.org/2000/svg" xmlns:xlink="http://www.w3.org/1999/xlink">
    <title>01_ICONS/32x32/Social/Insta</title>
    <g id="00-Styles" stroke="none" stroke-width="1" fill="none" fill-rule="evenodd" opacity="0.7">
        <g id="Icon" transform="translate(-170.000000, -707.000000)" fill="#FFFFFF" fill-rule="nonzero">
            <g id="Combined-Shape" transform="translate(166.888864, 703.000000)">
                <path d="M16,4 C19.182603,4 22.2348595,5.26426019 24.4852997,7.51470032 C26.7357398,9.76514045 28,12.817397 28,16 C28,22.627417 22.627417,28 16,28 C9.372583,28 4,22.627417 4,16 C4,9.372583 9.372583,4 16,4 Z M16.855796,9.7509897 L15.1442039,9.7509897 C14.1993155,9.7538005 13.9564175,9.7632625 13.4230875,9.7876125 C12.9046025,9.79801777 12.3916339,9.89625137 11.9059875,10.0781375 C11.0664346,10.4027573 10.4027516,11.0664448 10.0781375,11.906 C9.89625137,12.3916464 9.79801777,12.904615 9.7876125,13.4231 C9.7632625,13.95642 9.7538005,14.199316 9.7509897,15.144204 L9.75005582,15.7562835 L9.75005582,15.7562835 L9.75,16 C9.75,16.0848694 9.75001794,16.1660274 9.75005582,16.2437165 L9.7509898,16.8557961 C9.753801,17.8006845 9.763265,18.0435825 9.787625,18.5769125 C9.79803027,19.0953975 9.89626387,19.6083661 10.07815,20.0940125 C10.402767,20.9335629 11.0664496,21.5972455 11.906,21.9218625 C12.3916464,22.1037486 12.904615,22.2019822 13.4231,22.2123875 C13.95642,22.2367375 14.199316,22.2461995 15.144204,22.2490103 L15.7562835,22.2499442 L15.7562835,22.2499442 L16,22.25 C16.0848694,22.25 16.1660274,22.2499821 16.2437165,22.2499442 L16.8557961,22.24901 C17.8006845,22.246198 18.0435825,22.23673 18.5769125,22.21235 C19.0953975,22.2019447 19.6083661,22.1037111 20.0940125,21.921825 C20.9335629,21.597208 21.5972455,20.9335254 21.9218625,20.093975 C22.1037486,19.6083286 22.2019822,19.09536 22.2123875,18.576875 C22.2367375,18.04358 22.2461995,17.800684 22.2490103,16.855796 L22.2490102,15.1442039 C22.246199,14.1993155 22.236735,13.9564175 22.212375,13.4230875 C22.2019697,12.9046025 22.1037361,12.3916339 21.92185,11.9059875 C21.597233,11.0664371 20.9335504,10.4027545 20.094,10.0781375 C19.6083536,9.89625137 19.095385,9.79801777 18.5769,9.7876125 C18.04358,9.7632625 17.800684,9.7538005 16.855796,9.7509897 Z M16.3725299,10.8289588 C17.2031185,10.8298164 17.5768095,10.8335583 17.9082003,10.8439223 L18.0722902,10.8496734 C18.1818926,10.8538985 18.2944728,10.8589286 18.4253862,10.8649021 C18.8189673,10.8695621 19.2088167,10.9418624 19.5778952,11.0786428 C20.1191868,11.2874676 20.5470275,11.7153083 20.7558524,12.2566 C20.8926314,12.6256746 20.9649316,13.0155196 20.9695931,13.4090966 C20.9755641,13.5400099 20.9805922,13.6525896 20.9848157,13.7621914 L20.9905647,13.9262801 C21.0000617,14.2300528 21.0039969,14.5693689 21.0052473,15.2635804 L21.0052437,16.570903 C21.0039854,17.2651161 21.0000319,17.6044359 20.9905374,17.9082081 L20.9847919,18.0722961 C20.9805724,18.1818971 20.9755517,18.2944753 20.9695931,18.4253862 C20.9649419,18.8189682 20.8926414,19.208819 20.7558524,19.5778952 C20.5470275,20.1191868 20.1191868,20.5470275 19.5778952,20.7558524 C19.2088167,20.8926328 18.8189673,20.964933 18.4253862,20.9695931 C18.2945051,20.9755617 18.1819478,20.9805882 18.0723605,20.9848109 L17.9082879,20.9905593 C17.6045349,21.0000557 17.2651871,21.0039946 16.5709358,21.0052466 L15.263547,21.0052437 C14.1906132,21.003299 13.9653412,20.9949172 13.4090966,20.9695931 C13.0155154,20.964933 12.6256661,20.8926328 12.2565876,20.7558524 C11.7152959,20.5470275 11.2874552,20.1191868 11.0786303,19.5778952 C10.9418414,19.208819 10.8695409,18.8189682 10.8648897,18.4253862 C10.8589211,18.2944728 10.8538945,18.1818887 10.8496718,18.0722806 L10.8439235,17.9081815 C10.8335637,17.576771 10.829818,17.2030568 10.8289592,16.3725058 L10.8289588,15.461977 C10.8298164,14.6314259 10.8335577,14.2577117 10.843918,13.9263012 L10.8496671,13.7622021 C10.8538905,13.6525941 10.8589186,13.5400099 10.8648897,13.4090966 C10.8695497,13.0155154 10.94185,12.6256661 11.0786303,12.2565876 C11.2874552,11.7152959 11.7152959,11.2874552 12.2565876,11.0786303 C12.6256661,10.94185 13.0155154,10.8695497 13.4090966,10.8648897 C13.5400099,10.8589186 13.6525901,10.8538905 13.7621926,10.8496671 L13.9262824,10.843918 C14.2576733,10.8335577 14.6313642,10.8298164 15.4619528,10.8289588 Z M15.9172414,12.7299131 C14.1569286,12.7299131 12.7299131,14.1569286 12.7299131,15.9172414 C12.7299131,17.6775542 14.1569286,19.1045697 15.9172414,19.1045697 C16.7625744,19.1045697 17.5732857,18.7687672 18.1710265,18.1710265 C18.7687672,17.5732857 19.1045697,16.7625744 19.1045697,15.9172414 C19.1045697,14.1569286 17.6775542,12.7299131 15.9172414,12.7299131 Z M15.9172414,13.8482469 C17.0599155,13.8482469 17.9862359,14.7745673 17.9862359,15.9172414 C17.9862359,17.0599155 17.0599155,17.9862359 15.9172414,17.9862359 C14.7745673,17.9862359 13.8482469,17.0599155 13.8482469,15.9172414 C13.8482469,14.7745673 14.7745673,13.8482469 15.9172414,13.8482469 Z M19.2304828,11.8591724 C18.8191258,11.8591724 18.4856552,12.1926431 18.4856552,12.604 C18.4856552,13.0153569 18.8191258,13.3488276 19.2304828,13.3488276 C19.6418397,13.3488276 19.9753103,13.0153569 19.9753103,12.604 C19.9753103,12.1926431 19.6418397,11.8591724 19.2304828,11.8591724 Z"></path>
            </g>
        </g>
    </g>
</svg>