<?xml version="1.0" encoding="UTF-8"?>
<svg width="28px" height="28px" viewBox="0 0 28 28" version="1.1" xmlns="http://www.w3.org/2000/svg" xmlns:xlink="http://www.w3.org/1999/xlink">
    <title>913CA234-007F-41E6-A65F-38C385753798</title>
    <g id="HP" stroke="none" stroke-width="1" fill="none" fill-rule="evenodd">
        <g id="DSK_S6_Homepage_V4_1" transform="translate(-119.000000, -994.000000)">
            <g id="07_Organisms/Content/Subscription" transform="translate(79.000000, 840.000000)">
                <g id="06_Components/1-Cards/4-Subscription&amp;Promo" transform="translate(0.000000, 88.000000)">
                    <g id="Group-2" transform="translate(24.000000, 64.000000)">
                        <g id="Group" transform="translate(8.000000, 0.000000)">
                            <g id="Group" transform="translate(8.000000, 0.000000)">
                                <g transform="translate(0.000000, 2.000000)" id="Group-2">
                                    <rect id="Bound" fill-opacity="0" fill="#FFFFFF" x="0" y="0" width="28" height="28" rx="14"></rect>
                                    <g id="discount-bubble" transform="translate(4.484472, 4.156422)" fill="#FF8700">
                                        <path d="M9.51552845,-1.54543045e-13 C10.8244022,-1.54543045e-13 12.0026816,0.710443879 12.6278157,1.81057068 L12.6278157,1.81057068 L12.6961534,1.93795304 L12.9143456,1.88089404 C14.0465411,1.62466953 15.2549436,1.94022372 16.1209699,2.76036775 L16.1209699,2.76036775 L16.2555744,2.89485869 C17.1743729,3.86261551 17.5065273,5.22335101 17.177718,6.47912456 L17.177718,6.47912456 L17.1472784,6.58157804 L17.1869502,6.60395253 C18.2731946,7.23544627 18.978943,8.38485865 19.0286758,9.6546592 L19.0286758,9.6546592 L19.0312881,9.83683532 C19.0451864,11.1894506 18.3247329,12.4209526 17.1867946,13.0824905 L17.1867946,13.0824905 L17.1472784,13.103828 L17.1777194,13.2071551 C17.4900945,14.4001333 17.20598,15.687808 16.3892385,16.6431066 L16.3892385,16.6431066 L16.2558624,16.7911189 C15.3347396,17.7625634 13.9629461,18.1146588 12.7156452,17.7550229 L12.7156452,17.7550229 L12.6961534,17.748328 L12.6278157,17.8765854 C12.0310968,18.9267064 10.9303757,19.6217651 9.69316208,19.6827826 L9.69316208,19.6827826 L9.51552845,19.6871561 C8.20665466,19.6871561 7.02837528,18.9767122 6.40324119,17.8765854 L6.40324119,17.8765854 L6.33402845,17.748328 L6.11621561,17.8060796 C4.9837909,18.061936 3.77534575,17.7461235 2.90912476,16.9258131 L2.90912476,16.9258131 L2.77448807,16.7912966 C1.85598548,15.8233391 1.52417648,14.4625875 1.85325227,13.206939 L1.85325227,13.206939 L1.88465345,13.097703 L1.81932988,13.0613102 C0.758891898,12.4235905 0.0681499543,11.2924725 0.00476962853,10.0329814 L0.00476962853,10.0329814 L1.77635684e-15,9.84314054 C1.77635684e-15,8.50815383 0.705869999,7.29457656 1.81932988,6.62497092 L1.81932988,6.62497092 L1.88465345,6.58770304 L1.85325273,6.47934157 C1.54063292,5.28647324 1.82447202,3.99873838 2.64120971,3.04296962 L2.64120971,3.04296962 L2.77458755,2.89487971 C3.69627823,1.92399072 5.0681046,1.57235399 6.31540269,1.93210234 L6.31540269,1.93210234 L6.33402845,1.93795304 L6.40324119,1.81057068 C6.9999601,0.760449642 8.10068122,0.0653909372 9.33789481,0.0043734537 L9.33789481,0.0043734537 Z M9.51552845,1.3125 C8.49816346,1.3125 7.60537743,1.99021934 7.33186839,2.9701297 C7.21881266,3.37517842 6.75930211,3.57085622 6.38893787,3.37166688 C5.50674564,2.89720615 4.41612328,3.07205987 3.72656883,3.79842155 C3.00443577,4.55943641 2.83581775,5.69103218 3.30470946,6.62952051 C3.48084216,6.98205071 3.30874099,7.40922278 2.93741203,7.54118896 C1.9632615,7.88739121 1.3125,8.80930048 1.3125,9.84314054 C1.3125,10.8769806 1.9632615,11.7988899 2.93741203,12.1450921 C3.30874099,12.2770583 3.48084216,12.7042304 3.30470946,13.0567606 C2.83581775,13.9952489 3.00443577,15.1268447 3.72659477,15.8878869 C4.41608142,16.6145811 5.50672406,16.7897147 6.38906329,16.3154218 C6.75941928,16.1163405 7.21882837,16.3120339 7.33186839,16.7170264 C7.60537743,17.6969367 8.49816346,18.3746561 9.51552845,18.3746561 C10.5328934,18.3746561 11.4256795,17.6969367 11.6991885,16.7170264 C11.8122456,16.3119727 12.2717652,16.1162963 12.6421302,16.3154952 C13.5240629,16.7898383 14.6144174,16.6147065 15.3037325,15.8877337 C16.0260982,15.1268766 16.1949956,13.9952645 15.7262846,13.0566347 C15.5490065,12.7016218 15.7249146,12.2717147 16.1002047,12.1427999 C17.0772379,11.8071821 17.7294726,10.8834215 17.7189876,9.83678364 C17.7295573,8.80341696 17.0772955,7.8793412 16.1000784,7.54343779 C15.7248652,7.41446404 15.5490305,6.98461128 15.7262846,6.62964635 C16.1949956,5.69101662 16.0260982,4.55940447 15.30357,3.79837612 C14.6143755,3.07193454 13.5240413,2.89708266 12.6422556,3.37159341 C12.2718824,3.57090041 11.8122613,3.37523971 11.6991885,2.9701297 C11.4256795,1.99021934 10.5328934,1.3125 9.51552845,1.3125 Z M12.4686534,10.499828 C13.555964,10.499828 14.4374034,11.3812674 14.4374034,12.468578 C14.4374034,13.5558886 13.555964,14.437328 12.4686534,14.437328 C11.3813428,14.437328 10.4999034,13.5558886 10.4999034,12.468578 C10.4999034,11.3812674 11.3813428,10.499828 12.4686534,10.499828 Z M13.5889423,6.09828921 C13.8219255,6.33127246 13.8431058,6.69585318 13.6524832,6.95276324 L13.5889423,7.02636686 L7.02644227,13.5888669 C6.77016071,13.8451484 6.35464619,13.8451484 6.09836462,13.5888669 C5.86538138,13.3558836 5.84420109,12.9913029 6.03482374,12.7343928 L6.09836462,12.6607892 L12.6608646,6.09828921 C12.9171462,5.84200765 13.3326607,5.84200765 13.5889423,6.09828921 Z M12.4686534,11.812328 C12.1062166,11.812328 11.8124034,12.1061412 11.8124034,12.468578 C11.8124034,12.8310149 12.1062166,13.124828 12.4686534,13.124828 C12.8310903,13.124828 13.1249034,12.8310149 13.1249034,12.468578 C13.1249034,12.1061412 12.8310903,11.812328 12.4686534,11.812328 Z M7.21865345,5.24982804 C8.30596405,5.24982804 9.18740345,6.13126744 9.18740345,7.21857804 C9.18740345,8.30588864 8.30596405,9.18732804 7.21865345,9.18732804 C6.13134285,9.18732804 5.24990345,8.30588864 5.24990345,7.21857804 C5.24990345,6.13126744 6.13134285,5.24982804 7.21865345,5.24982804 Z M7.21865345,6.56232804 C6.85621658,6.56232804 6.56240345,6.85614117 6.56240345,7.21857804 C6.56240345,7.58101491 6.85621658,7.87482804 7.21865345,7.87482804 C7.58109032,7.87482804 7.87490345,7.58101491 7.87490345,7.21857804 C7.87490345,6.85614117 7.58109032,6.56232804 7.21865345,6.56232804 Z" id="Combined-Shape"></path>
                                    </g>
                                </g>
                            </g>
                        </g>
                    </g>
                </g>
            </g>
        </g>
    </g>
</svg>